name D:\Gebruiker\Documents\~school~\WTK\thesis\model\3dpredictsim_Lars\Results\Test_Lars\Test1_alphaCst_pas.mot
datacolumns 126
datarows 4
range 0.55308165 0.58626655
endheader
time	pelvis_tilt	pelvis_list	pelvis_rotation	pelvis_tx	pelvis_ty	pelvis_tz	hip_flexion_l	hip_adduction_l	hip_rotation_l	hip_flexion_r	hip_adduction_r	hip_rotation_r	knee_angle_l	knee_angle_r	ankle_angle_l	ankle_angle_r	subtalar_angle_l	subtalar_angle_r	mtp_angle_l	mtp_angle_r	lumbar_extension	lumbar_bending	lumbar_rotation	arm_flex_l	arm_add_l	arm_rot_l	arm_flex_r	arm_add_r	arm_rot_r	elbow_flex_l	elbow_flex_r	pro_sup_l	pro_sup_r	glut_med1_l/activation	glut_med2_l/activation	glut_med3_l/activation	glut_min1_l/activation	glut_min2_l/activation	glut_min3_l/activation	semimem_l/activation	semiten_l/activation	bifemlh_l/activation	bifemsh_l/activation	sar_l/activation	add_long_l/activation	add_brev_l/activation	add_mag1_l/activation	add_mag2_l/activation	add_mag3_l/activation	tfl_l/activation	pect_l/activation	grac_l/activation	glut_max1_l/activation	glut_max2_l/activation	glut_max3_l/activation	iliacus_l/activation	psoas_l/activation	quad_fem_l/activation	gem_l/activation	peri_l/activation	rect_fem_l/activation	vas_med_l/activation	vas_int_l/activation	vas_lat_l/activation	med_gas_l/activation	lat_gas_l/activation	soleus_l/activation	tib_post_l/activation	flex_dig_l/activation	flex_hal_l/activation	tib_ant_l/activation	per_brev_l/activation	per_long_l/activation	per_tert_l/activation	ext_dig_l/activation	ext_hal_l/activation	ercspn_l/activation	intobl_l/activation	extobl_l/activation	glut_med1_r/activation	glut_med2_r/activation	glut_med3_r/activation	glut_min1_r/activation	glut_min2_r/activation	glut_min3_r/activation	semimem_r/activation	semiten_r/activation	bifemlh_r/activation	bifemsh_r/activation	sar_r/activation	add_long_r/activation	add_brev_r/activation	add_mag1_r/activation	add_mag2_r/activation	add_mag3_r/activation	tfl_r/activation	pect_r/activation	grac_r/activation	glut_max1_r/activation	glut_max2_r/activation	glut_max3_r/activation	iliacus_r/activation	psoas_r/activation	quad_fem_r/activation	gem_r/activation	peri_r/activation	rect_fem_r/activation	vas_med_r/activation	vas_int_r/activation	vas_lat_r/activation	med_gas_r/activation	lat_gas_r/activation	soleus_r/activation	tib_post_r/activation	flex_dig_r/activation	flex_hal_r/activation	tib_ant_r/activation	per_brev_r/activation	per_long_r/activation	per_tert_r/activation	ext_dig_r/activation	ext_hal_r/activation	ercspn_r/activation	intobl_r/activation	extobl_r/activation	
          0.55308165	         -2.92888138	          2.54067023	         -5.84625695	          0.69135206	          0.85561223	          0.00327956	         31.77016166	          3.25296502	         -2.69559455	        -18.92506539	         -2.12752250	          7.14733415	        -13.50672081	         -5.55032318	          7.50215435	          1.67311384	         -4.68055882	          9.37468524	         -0.13384502	         22.14050076	         -2.21491069	         -0.82616921	          2.05474028	        -10.00548494	        -13.58804444	          8.17220882	          9.95096509	        -13.45538449	         18.86338756	         12.46973455	         37.31273498	         86.51662706	         86.51662706	          0.09511582	          0.05000005	          0.05000144	          0.05000005	          0.05000006	          0.05000021	          0.07234740	          0.05921847	          0.34787440	          0.05000034	          0.05000081	          0.10586688	          0.15073811	          0.20265790	          0.16104113	          0.13477201	          0.05921702	          0.05229664	          0.06418342	          0.05000058	          0.07013639	          0.12623051	          0.05000070	          0.05503227	          0.21307586	          0.05000100	          0.05000056	          0.05000026	          0.09669135	          0.10063001	          0.08555330	          0.05000062	          0.05000039	          0.05921801	          0.05000002	          0.06073342	          0.05921835	          0.51962600	          0.40717874	          0.24361456	          0.32047114	          0.55848010	          0.33553051	          0.07894463	          0.10330430	          0.11323758	          0.25672058	          0.09839997	          0.07623483	          0.31736722	          0.20612566	          0.10996489	          0.05000075	          0.05000009	          0.05000006	          0.08145659	          0.11651694	          0.05002224	          0.05000013	          0.05000013	          0.05000039	          0.05000027	          0.34074747	          0.05000094	          0.05000051	          0.05000780	          0.05000253	          0.05000115	          0.47485536	          0.71913509	          0.05000123	          0.05000142	          0.05047127	          0.28717565	          0.05002491	          0.05000095	          0.05000085	          0.34685885	          0.46811324	          0.31865623	          0.29127332	          0.31237743	          0.42559181	          0.05000000	          0.06674588	          0.17230654	          0.05000005	          0.05000001	          0.05000005	          0.05000000	          0.05000000	          0.05000000	
          0.56414328	         -2.92275651	          2.63311354	         -6.15026443	          0.70802044	          0.85448363	          0.00307997	         31.23593120	          3.61131299	         -2.50655264	        -18.80848144	         -2.45016356	          6.96253048	        -13.49177377	         -7.51608419	          6.96692013	          0.85789791	         -5.17174638	         10.36769011	         -0.11641699	         23.21340905	         -2.01287475	         -1.05164716	          2.14172698	        -11.20289210	        -13.57669740	          8.08178948	          9.83294959	        -13.46677943	         19.05575342	         12.41161025	         38.58513265	         86.51662706	         86.51662706	          0.09129991	          0.05921801	          0.05000006	          0.05921815	          0.05921805	          0.05000054	          0.06108565	          0.05000043	          0.30652475	          0.05000011	          0.05000025	          0.08938749	          0.12727390	          0.17111237	          0.20202280	          0.14278507	          0.05000007	          0.05000061	          0.05419257	          0.05921795	          0.05921885	          0.14835145	          0.05000007	          0.05000015	          0.50204078	          0.12509988	          0.06399599	          0.07006766	          0.17083883	          0.17774739	          0.15406501	          0.05000000	          0.05000000	          0.05000000	          0.05000001	          0.05921793	          0.05000048	          0.58530599	          0.34379637	          0.22655477	          0.50849956	          0.59808087	          0.30132458	          0.06665592	          0.08722370	          0.09561073	          0.21675886	          0.08308279	          0.06436794	          0.26796509	          0.17403964	          0.09284749	          0.05000110	          0.05000011	          0.05000013	          0.06877686	          0.09837970	          0.12592767	          0.06236533	          0.05078332	          0.05000134	          0.05000071	          0.28770594	          0.09682571	          0.05000063	          0.05000060	          0.05000040	          0.05000032	          0.40093821	          0.66102976	          0.05000007	          0.05000101	          0.05921802	          0.24247321	          0.05000111	          0.19357066	          0.17101214	          0.29286593	          0.39524556	          0.26905342	          0.26905630	          0.26375253	          0.35934568	          0.05000000	          0.05635621	          0.18125955	          0.05000004	          0.05000001	          0.05000004	          0.05000004	          0.06903201	          0.05000001	
          0.57520491	         -2.91251892	          2.72165692	         -6.42733370	          0.72499112	          0.85340271	          0.00288439	         30.60291068	          3.91648798	         -2.25650510	        -18.60120854	         -2.76124252	          6.76695256	        -14.07776720	         -9.63756050	          6.29705288	         -0.13257038	         -5.68091911	         11.32116489	         -0.15392006	         24.12755949	         -1.78859193	         -1.27907549	          2.21757616	        -12.41186383	        -13.56493611	          8.02632931	          9.61360413	        -13.47735331	         19.16053501	         12.41033128	         39.82689864	         86.51662706	         86.51662706	          0.27142428	          0.05000003	          0.32987413	          0.05000013	          0.05000007	          0.23006113	          0.07694535	          0.05000008	          0.25881037	          0.05000004	          0.05000020	          0.07669871	          0.20120506	          0.17292171	          0.17059971	          0.17017083	          0.05000014	          0.05921883	          0.11025749	          0.05000006	          0.05000074	          0.16856685	          0.05152458	          0.05000022	          0.42389187	          0.10562657	          0.17547895	          0.05916077	          0.14424568	          0.15007885	          0.13008290	          0.06237676	          0.06790803	          0.06400038	          0.05921803	          0.05000006	          0.05000009	          0.49419578	          0.40667291	          0.22582558	          0.42934532	          0.58114394	          0.25441965	          0.05647440	          0.08221121	          0.08072773	          0.29801746	          0.07014992	          0.05434829	          0.22625306	          0.14694821	          0.07839463	          0.05000067	          0.05000015	          0.05000014	          0.05807090	          0.08306574	          0.15072796	          0.09577397	          0.05921823	          0.05921770	          0.05912214	          0.24292123	          0.09071563	          0.05008000	          0.05000262	          0.05000226	          0.05001927	          0.33852720	          0.62225140	          0.05921749	          0.05000062	          0.05000004	          0.20472923	          0.13392675	          0.16343908	          0.14439211	          0.24727768	          0.33372065	          0.22717189	          0.22717437	          0.22269623	          0.30340911	          0.05000000	          0.06412609	          0.20260302	          0.05000002	          0.05000000	          0.05000003	          0.05783771	          0.05828633	          0.05000003	
          0.58626655	         -2.89999758	          2.80668511	         -6.67212024	          0.74209709	          0.85237420	          0.00267011	         29.85975148	          4.18416333	         -1.99221006	        -18.29075220	         -3.05862189	          6.56552474	        -14.74820795	        -11.91113969	          5.85862972	         -1.29923167	         -6.17822209	         12.21385360	         -0.17598397	         24.83091377	         -1.55833010	         -1.50603338	          2.28365112	        -13.58809971	        -13.55242268	          8.02307076	          9.31901760	        -13.49082447	         19.19188202	         12.43440236	         41.02277836	         86.51662706	         86.51662706	          0.32293421	          0.30383197	          0.40885657	          0.22659448	          0.22754350	          0.19424956	          0.06496790	          0.09430894	          0.21852330	          0.08306558	          0.05001395	          0.06475961	          0.16988499	          0.14600432	          0.14404381	          0.18248123	          0.05000012	          0.05000081	          0.09309465	          0.23432776	          0.18350988	          0.17178416	          0.05000002	          0.05000003	          0.35790783	          0.08918458	          0.14816356	          0.05000001	          0.12179206	          0.12671723	          0.10983389	          0.05266704	          0.05733731	          0.05403792	          0.05000001	          0.05921815	          0.05921803	          0.62937560	          0.46136058	          0.23977269	          0.67155461	          0.65904829	          0.37401498	          0.08503789	          0.08306570	          0.06816145	          0.25162751	          0.05923022	          0.05000001	          0.32277357	          0.12407391	          0.06619154	          0.05316916	          0.05000005	          0.05000004	          0.05000007	          0.07013564	          0.14407277	          0.08086561	          0.05000028	          0.05000020	          0.05000013	          0.27652206	          0.07659493	          0.05000013	          0.05000032	          0.05000018	          0.05000011	          0.28583123	          0.57359147	          0.05000001	          0.05000011	          0.05000007	          0.17286058	          0.11307961	          0.13799797	          0.13799821	          0.20878582	          0.28177285	          0.19180974	          0.19181186	          0.18803082	          0.25617972	          0.05000000	          0.11324561	          0.18827691	          0.05000006	          0.05000002	          0.05000004	          0.07458532	          0.05000000	          0.05000000	
